HIERARCHY
ROOT Pelvis
{
	OFFSET 0.000000 0.950587 0.000000
	CHANNELS 6 Xposition Yposition Zposition Zrotation Yrotation Xrotation 
	JOINT L_Hip
	{
		OFFSET 0.052639 -0.080465 -0.035483
		CHANNELS 3 Zrotation Yrotation Xrotation
		JOINT L_Knee
		{
			OFFSET 0.050796 -0.376999 0.111822
			CHANNELS 3 Zrotation Yrotation Xrotation
			JOINT L_Ankle
			{
				OFFSET -0.034879 -0.414819 -0.111926
				CHANNELS 3 Zrotation Yrotation Xrotation
				End Site #name: L_Foot
				{
					OFFSET 0.066127 -0.048845 0.120004
				}
			}
		}
	}
	JOINT R_Hip
	{
		OFFSET -0.057858 -0.086150 -0.039694
		CHANNELS 3 Zrotation Yrotation Xrotation
		JOINT R_Knee
		{
			OFFSET -0.061479 -0.377091 0.086936
			CHANNELS 3 Zrotation Yrotation Xrotation
			JOINT R_Ankle
			{
				OFFSET 0.001726 -0.416988 -0.079253
				CHANNELS 3 Zrotation Yrotation Xrotation
				End Site #name: R_Foot
				{
					OFFSET -0.080256 -0.051614 0.121373
				}
			}
		}
	}
	JOINT Spine1
	{
		OFFSET 0.008260 0.131795 -0.002566
		CHANNELS 3 Zrotation Yrotation Xrotation
		JOINT Spine2
		{
			OFFSET 0.011364 0.105492 0.092388
			CHANNELS 3 Zrotation Yrotation Xrotation
			JOINT Spine3
			{
				OFFSET -0.002571 0.045340 0.034499
				CHANNELS 3 Zrotation Yrotation Xrotation
				JOINT Neck
				{
					OFFSET -0.018439 0.191089 0.110596
					CHANNELS 3 Zrotation Yrotation Xrotation
					End Site #name: Head
					{
						OFFSET 0.002389 0.075918 0.070872
					}
				}
				JOINT L_Collar
				{
					OFFSET 0.068485 0.106459 0.058479
					CHANNELS 3 Zrotation Yrotation Xrotation
					JOINT L_Shoulder
					{
						OFFSET 0.129836 0.007905 -0.021159
						CHANNELS 3 Zrotation Yrotation Xrotation
						JOINT L_Elbow
						{
							OFFSET 0.018741 -0.135093 -0.219948
							CHANNELS 3 Zrotation Yrotation Xrotation
							End Site #name: L_Wrist
							{
								OFFSET 0.023301 -0.267460 0.021367
							}
						}
					}
				}
				JOINT R_Collar
				{
					OFFSET -0.085925 0.105032 0.048170
					CHANNELS 3 Zrotation Yrotation Xrotation
					JOINT R_Shoulder
					{
						OFFSET -0.120637 -0.007019 -0.012929
						CHANNELS 3 Zrotation Yrotation Xrotation
						JOINT R_Elbow
						{
							OFFSET -0.010887 -0.142983 -0.224101
							CHANNELS 3 Zrotation Yrotation Xrotation
							End Site #name: R_Wrist
							{
								OFFSET 0.009830 -0.266116 -0.021953
							}
						}
					}
				}
			}
		}
	}
}
MOTION
Frames: 11
Frame Time: 0.041667
0.000000 0.950587 0.000000 0.000000 0.000000 0.000000 0.000000 0.000000 0.000000 0.000000 0.000000 0.000000 0.000000 0.000000 0.000000 0.012509 0.000736 0.013164 -0.015203 0.002818 -0.016766 0.001548 -0.003046 0.004300 -0.000553 0.002606 -0.019700 0.002155 -0.000523 0.019707 -0.004644 -0.002858 -0.002343 0.006125 -0.006083 0.011570 0.000000 0.000000 0.000000 0.000000 0.000000 0.000000 0.000000 0.000000 0.000000 0.000000 0.000000 0.000000 0.003693 -0.007164 0.018038 -0.002753 -0.000938 -0.031531 
-0.000615 0.933167 -0.013631 0.059840 0.033621 1.744123 0.453845 -0.701395 -6.301692 -1.029484 -0.169741 5.923997 1.344754 0.935768 -1.779963 -0.609138 0.754923 -5.622391 1.144591 -0.252051 5.501499 -1.229027 -0.291314 -1.686282 -0.277560 -0.289599 4.952092 -0.220841 0.142573 -0.427612 0.549980 -0.090923 -0.345138 -0.147125 0.200918 -2.226497 -1.697261 -0.319325 -0.252790 -1.030249 1.581322 -0.575639 1.624411 0.131959 0.032163 1.423913 1.897234 -0.239687 1.381445 -2.156958 -0.085436 0.096216 0.031045 1.079124 
-0.000914 0.909876 -0.024986 -0.000076 0.069381 3.522912 1.088235 -1.333683 -12.831461 -2.220911 -0.256928 13.061213 3.097416 2.104769 -4.234516 -1.604899 1.429235 -11.824452 2.794442 -0.799601 12.393013 -2.845351 -0.903304 -3.805393 -0.473277 -0.541207 8.855787 -0.413933 0.229322 -1.385427 0.966888 -0.099977 -0.660053 -0.383541 0.468494 -4.543036 -3.240596 -0.603065 -0.475703 -1.929408 2.861884 -1.456404 3.639533 0.270869 -0.348657 3.041447 3.642176 -0.442127 2.431303 -3.710633 -0.710850 -0.364059 0.095149 1.619966 
-0.000776 0.873553 -0.033073 -0.128944 0.139064 5.257980 2.014105 -1.945456 -20.624072 -3.826550 -0.142670 22.747812 5.475592 3.614152 -7.813339 -3.154661 2.035350 -19.663469 5.105472 -1.967395 22.515077 -5.545564 -2.310196 -7.232197 -0.636967 -0.905988 13.362872 -0.736688 0.376710 -2.802265 1.377517 -0.097171 -1.302530 -0.859619 0.921291 -7.219379 -5.412248 -1.073903 -0.769914 -2.754772 3.783452 -3.295207 6.857096 0.524733 -0.781409 5.392361 5.954116 -0.646278 3.381855 -4.928389 -2.204586 -1.607690 0.241782 2.131379 
-0.000056 0.830298 -0.035327 -0.307617 0.227073 5.742107 2.797305 -2.375805 -27.077935 -5.108255 0.023759 33.403858 7.909230 4.878969 -11.925869 -4.675657 2.350447 -26.647630 7.225414 -3.652062 33.998541 -8.564244 -3.951005 -11.232518 -0.689201 -1.232589 16.417165 -1.033894 0.501493 -4.131709 1.617801 -0.110463 -1.916503 -1.377686 1.363869 -9.366005 -7.626218 -1.468177 -1.063925 -3.156111 3.896742 -5.663792 10.741547 0.859811 -0.831664 7.692772 8.030564 -0.755640 3.680281 -5.075288 -3.959599 -3.955906 0.507042 2.504146 
0.000981 0.788872 -0.029589 -0.580144 0.273057 4.522487 3.148762 -2.669878 -30.889613 -5.810267 0.028511 44.004847 10.021554 6.005745 -15.693074 -5.707864 2.359034 -30.588721 8.735124 -5.441494 44.224489 -11.316084 -5.324652 -15.170900 -0.644928 -1.390118 17.220463 -0.957565 0.380571 -5.148492 1.521319 -0.041162 -2.075980 -1.326910 1.336317 -10.859307 -9.465492 -1.477957 -1.343267 -2.773698 2.937657 -7.748162 14.596006 1.226032 -1.611575 9.848960 9.345616 -0.799107 2.613762 -3.308870 -5.496307 -7.442310 0.860725 2.376516 
0.001545 0.757213 -0.015260 -0.931341 0.296529 1.667813 2.898938 -2.766364 -30.450492 -5.730144 -0.434985 52.567324 12.024011 7.431595 -19.236790 -6.029629 2.194983 -30.657630 9.118888 -6.568600 52.054986 -13.459279 -5.746331 -18.777774 -0.601363 -1.237636 15.670054 -0.435233 -0.006615 -5.582281 1.186180 0.092765 -2.112469 -0.790668 0.927741 -11.121880 -10.573561 -0.899475 -1.601022 -1.219792 0.431762 -9.973593 17.266521 1.750452 -5.816815 11.659021 8.948026 -0.862243 -0.553805 1.264720 -7.344951 -11.718233 0.858304 -0.820406 
0.001300 0.753385 0.006181 -1.338961 0.270090 -1.354830 2.049782 -2.542000 -25.162092 -4.447698 -1.679716 54.210146 13.290865 8.891044 -21.244652 -5.189334 2.073339 -26.477617 8.254393 -6.114181 53.858798 -14.144445 -5.694736 -20.062242 -0.526938 -0.628239 10.073750 0.601264 -0.655240 -4.199964 0.520820 0.229701 -2.481738 -0.538507 0.702618 -9.480175 -9.743456 -0.604480 -1.512442 2.092133 -4.213347 -13.461790 17.360470 2.496720 -16.714434 10.851174 7.399893 -0.895046 -5.136763 7.387880 -9.036571 -14.613372 -0.588323 -10.879252 
0.000778 0.792016 0.032383 -1.763596 0.052310 -3.972273 1.653631 -1.371377 -14.969219 -1.828023 -3.033433 44.529946 12.229492 7.765617 -19.491434 -4.175629 1.258802 -17.138324 7.328299 -4.677762 45.945507 -11.854672 -3.800469 -17.032746 0.012149 -0.036493 0.239131 1.598903 -1.292181 -2.241181 -0.634182 0.415260 -1.865762 -0.501232 0.623674 -7.069095 -7.409131 -1.394241 -1.040103 8.142966 -11.396722 -18.104396 17.865160 3.348906 -26.545697 5.867681 6.088513 -0.673497 -9.795926 13.192343 -10.731865 -13.940426 -2.630828 -23.657063 
0.000309 0.863195 0.061169 -2.186443 -0.308772 -6.311194 2.503408 0.486507 -2.281502 0.890258 -3.021811 27.549576 5.799530 -0.308357 -11.104581 -4.018682 -0.218536 -5.540882 7.229932 -3.446882 31.214166 -4.545197 0.232580 -7.188405 0.861901 0.344430 -9.735584 1.808079 -1.354576 0.626467 -1.481090 0.293832 -2.049229 -1.146315 1.116109 -3.742775 -4.122196 -2.772855 -0.405906 14.060462 -17.150871 -23.280904 17.013228 3.223703 -28.710863 0.874104 5.328810 -0.364935 -14.027862 17.657367 -14.158297 -9.923102 -2.870049 -29.583590 
0.000118 0.978827 0.088857 -2.632236 -0.152917 -7.557286 5.194223 2.462015 11.237177 2.123718 -0.907078 3.174236 -10.439518 -5.561533 13.262151 -3.750599 -1.777829 7.270009 7.295067 -1.952856 8.974306 9.579237 -1.521733 14.786733 1.446907 0.811453 -18.049913 1.247049 -0.859231 2.221192 -1.200276 -0.279182 -3.228410 -1.953302 1.823930 3.269676 -1.749905 -6.049795 0.177632 17.992265 -20.150306 -27.708120 15.857990 2.765094 -27.633128 -2.816083 5.797951 -0.179625 -17.731895 20.689369 -18.555357 -5.816581 -2.313539 -31.584807 
